<?xml version="1.0" standalone="no"?><!DOCTYPE svg PUBLIC "-//W3C//DTD SVG 1.1//EN" "http://www.w3.org/Graphics/SVG/1.1/DTD/svg11.dtd"><svg t="1701085468373" class="icon" viewBox="0 0 1024 1024" version="1.1" xmlns="http://www.w3.org/2000/svg" p-id="2073" xmlns:xlink="http://www.w3.org/1999/xlink" width="200" height="200"><path d="M491.633046 746.8127l-210.982632-210.982632a117.375087 117.375087 0 0 0-195.25949 49.363354l-74.959167 239.503681a153.57488 153.57488 0 0 0 192.334253 192.334254l240.9663-73.130895a117.375087 117.375087 0 0 0 47.900736-195.25949v-1.828272z" fill="#BDBDBD" p-id="2074"></path><path d="M280.650414 535.830068a117.375087 117.375087 0 0 0-195.25949 49.363354l-74.959167 239.503681a152.843571 152.843571 0 0 0 36.565447 154.306189l337.499081-337.499081-103.845871-105.674143z" fill="#E0E0E0" p-id="2075"></path><path d="M274.434288 789.594274a36.565448 36.565448 0 0 1-25.595814-62.526916l229.996665-228.534047a36.565448 36.565448 0 0 1 50.460318 50.094663l-228.899702 228.534047a36.638578 36.638578 0 0 1-25.961467 12.432253z" fill="#FDD835" p-id="2076"></path><path d="M478.835139 498.533311l-229.996665 228.534047a36.565448 36.565448 0 0 0 0 51.557281l280.456983-280.091328a36.565448 36.565448 0 0 0-50.460318 0z" fill="#FFEB3B" p-id="2077"></path><path d="M1000.624075 141.288889l-114.449851-114.449851a36.565448 36.565448 0 0 0-51.557281 0l-414.28652 414.286521a36.492317 36.492317 0 0 0 0 51.922935l114.449851 114.084196a36.565448 36.565448 0 0 0 25.595813 10.969635 36.565448 36.565448 0 0 0 25.961468-10.969635l414.28652-414.28652a36.492317 36.492317 0 0 0 10.60398-25.961468 36.565448 36.565448 0 0 0-10.60398-25.595813z" fill="#FB8C00" p-id="2078"></path><path d="M886.174224 26.839038a36.565448 36.565448 0 0 0-51.557281 0l-414.28652 414.286521a36.492317 36.492317 0 0 0 0 51.922935l58.504716 55.57948 464.746838-464.746837-57.407753-57.042099z" fill="#FFA726" p-id="2079"></path></svg>